<?xml version="1.0" standalone="no"?>
<!DOCTYPE svg PUBLIC "-//W3C//DTD SVG 20010904//EN"
 "http://www.w3.org/TR/2001/REC-SVG-20010904/DTD/svg10.dtd">
<svg version="1.0" xmlns="http://www.w3.org/2000/svg"
 width="1024.000000pt" height="1024.000000pt" viewBox="0 0 1024.000000 1024.000000"
 preserveAspectRatio="xMidYMid meet">
<metadata>
Created by potrace 1.14, written by Peter Selinger 2001-2017
</metadata>
<g transform="translate(0.000000,1024.000000) scale(0.100000,-0.100000)"
fill="#000000" stroke="none">
<path d="M0 5120 l0 -5120 5120 0 5120 0 0 5120 0 5120 -5120 0 -5120 0 0
-5120z m8314 2406 c71 -35 110 -82 180 -221 186 -368 326 -838 371 -1239 71
-652 19 -1236 -162 -1791 -58 -179 -109 -286 -190 -405 -83 -120 -116 -155
-178 -188 -121 -65 -357 -17 -775 158 -94 39 -507 245 -603 302 -232 135 -625
415 -814 580 -64 55 -144 121 -177 145 -34 25 -61 48 -60 52 0 3 8 23 17 43
12 27 17 71 19 162 2 69 7 126 11 126 5 0 41 -19 80 -43 40 -23 115 -64 168
-91 79 -40 107 -49 152 -50 47 0 59 4 89 30 l34 30 -17 41 c-10 23 -39 59 -68
83 -37 31 -48 46 -39 52 9 5 4 8 -13 8 -15 0 -65 26 -120 63 -52 35 -131 85
-176 111 -46 27 -83 50 -83 51 0 1 370 3 823 4 915 2 867 -1 914 70 42 63 20
137 -57 189 l-34 23 -773 -3 -772 -3 37 22 c20 13 78 40 127 62 215 93 486
206 558 233 100 36 122 51 152 103 48 82 26 169 -51 201 -48 20 -85 17 -135
-9 -122 -65 -217 -112 -349 -172 -80 -37 -216 -103 -303 -146 -87 -43 -160
-79 -162 -79 -2 0 -5 62 -7 138 -3 113 -7 145 -25 184 -19 42 -19 47 -5 51 10
2 94 62 187 132 416 312 934 612 1405 812 236 101 340 138 535 189 119 32 210
29 289 -10z m-6069 9 c98 -25 304 -95 390 -133 252 -109 343 -151 493 -226
445 -222 844 -474 1135 -718 39 -33 78 -63 86 -68 13 -7 13 -14 -2 -60 -12
-38 -17 -87 -17 -176 l0 -124 -132 69 c-73 39 -205 102 -293 141 -88 40 -215
101 -283 137 -135 71 -187 82 -237 49 -41 -27 -67 -95 -56 -146 19 -85 41
-103 205 -165 64 -24 183 -74 264 -111 81 -37 188 -84 237 -104 50 -20 117
-51 150 -69 l60 -32 -105 6 c-58 2 -402 8 -765 11 -503 5 -670 4 -704 -5 -55
-16 -95 -55 -111 -109 -12 -37 -11 -45 11 -88 46 -92 -22 -86 926 -82 457 2
830 1 827 -3 -2 -3 -54 -35 -116 -69 -193 -108 -311 -186 -381 -253 -75 -72
-85 -103 -44 -141 51 -46 149 -26 346 74 75 38 150 78 166 89 l30 20 -3 -105
c-3 -85 0 -117 18 -175 21 -70 21 -70 1 -87 -233 -201 -563 -458 -736 -574
-348 -232 -773 -441 -1180 -578 -153 -52 -238 -70 -329 -70 -61 0 -82 5 -132
30 -116 58 -184 135 -272 307 -23 44 -42 83 -42 86 0 3 9 4 20 2 11 -2 22 0
25 5 3 5 29 12 56 16 33 5 46 10 37 15 -9 6 -7 9 9 9 12 0 29 3 39 7 12 4 15
3 10 -5 -4 -7 -1 -12 9 -12 11 0 15 5 11 16 -3 8 -2 12 4 9 6 -3 10 -1 10 4 0
6 -2 11 -5 11 -16 0 -193 -42 -212 -50 -20 -8 -24 -3 -54 68 -51 124 -68 177
-114 367 -79 326 -103 510 -112 885 -8 359 26 781 83 1020 14 58 34 148 45
200 11 52 28 118 39 145 10 28 30 84 43 125 65 200 201 480 267 548 30 32 75
59 120 73 44 13 203 10 265 -6z m3251 -1175 c22 -9 57 -32 77 -50 l37 -32 0
-435 0 -436 -475 5 c-261 2 -478 8 -482 11 -3 4 -7 192 -9 419 -3 451 -3 446
57 489 17 12 52 30 77 40 43 17 71 18 362 13 268 -5 321 -9 356 -24z m108
-1002 c3 -24 8 -107 11 -184 7 -164 0 -192 -61 -242 -71 -59 -94 -65 -274 -69
-91 -3 -241 0 -333 5 -159 9 -170 11 -214 38 -77 48 -83 70 -82 279 1 106 4
170 9 155 4 -14 8 -19 9 -12 1 6 8 12 16 12 8 0 15 5 15 10 0 6 9 10 20 10 11
0 20 -4 20 -10 0 -5 5 -10 10 -10 6 0 10 8 10 18 0 34 53 39 452 41 l387 1 5
-42z m-1096 -702 c-2 0 -14 -10 -27 -21 l-24 -20 18 27 c9 15 21 25 27 22 5
-3 8 -7 6 -8z m1273 -5 c28 -23 25 -28 -21 -35 -61 -8 -71 -12 -81 -27 -5 -8
-9 -10 -9 -5 0 9 71 84 81 85 4 1 17 -8 30 -18z m-4555 -331 c156 -506 406
-863 674 -958 36 -13 50 -20 30 -17 -99 18 -132 17 -159 -2 -67 -50 -88 -55
-146 -38 -60 17 -92 49 -174 170 -92 137 -191 405 -245 665 -36 167 -60 412
-36 355 4 -11 30 -90 56 -175z m7849 -96 c-49 -281 -138 -583 -217 -738 -72
-140 -247 -316 -290 -290 -5 3 -19 -3 -32 -15 -12 -11 -38 -23 -57 -25 -27 -3
-33 -8 -31 -22 2 -11 1 -16 -3 -12 -4 4 -14 0 -22 -8 -8 -8 -20 -11 -26 -7 -7
4 -8 0 -4 -11 4 -10 1 -19 -8 -22 -8 -4 -15 -12 -15 -18 0 -17 -40 -52 -68
-61 -15 -4 -21 -12 -18 -21 4 -11 -8 -14 -57 -16 -60 -2 -61 -2 -12 -5 27 -3
64 -2 81 1 36 7 150 73 212 123 l42 34 0 -28 c0 -90 -23 -212 -49 -270 -82
-174 -316 -191 -648 -48 -338 146 -738 395 -1135 704 -136 107 -618 576 -618
603 0 7 11 1 25 -14 23 -25 60 -38 119 -42 13 0 22 -4 19 -8 -5 -9 25 -12 68
-9 18 1 33 -6 45 -21 21 -27 95 -58 139 -59 26 0 27 -2 10 -9 -22 -9 -8 -14
32 -10 12 1 31 -4 42 -10 12 -6 21 -7 21 -1 0 5 -5 11 -11 13 -12 4 -1 38 13
38 6 0 56 -30 112 -67 55 -36 158 -96 229 -133 70 -37 124 -70 120 -75 -5 -4
-3 -5 4 -1 17 9 126 -46 110 -56 -8 -5 -5 -8 8 -6 39 3 56 -2 49 -14 -4 -6 -3
-8 3 -5 6 4 49 -11 94 -33 46 -22 75 -38 64 -35 -11 3 -16 2 -11 -2 4 -4 20
-9 34 -9 15 -1 81 -22 148 -47 272 -102 565 -155 719 -129 175 30 317 128 446
307 124 174 244 457 326 770 l18 70 3 -51 c2 -29 -9 -119 -23 -200z m-4645
132 c0 -2 -8 -10 -17 -17 -16 -13 -17 -12 -4 4 13 16 21 21 21 13z m-170 -216
c-56 -71 -472 -484 -580 -577 -291 -249 -721 -542 -960 -655 -19 -9 -107 -51
-195 -93 -183 -88 -234 -108 -325 -130 -170 -39 -340 8 -415 114 -26 37 -30
51 -29 104 1 74 22 140 46 145 10 2 57 -13 105 -33 110 -45 177 -52 263 -31
126 33 226 69 330 122 108 55 152 81 118 70 -15 -4 -18 1 -18 28 0 25 5 35 20
39 11 3 20 12 20 21 0 12 10 16 40 16 l40 0 0 40 c0 33 3 40 20 40 12 0 20 7
20 16 0 9 14 29 32 46 25 23 29 31 18 38 -8 5 -21 5 -31 -1 -24 -13 -49 -12
-29 1 26 17 -4 11 -101 -21 -103 -33 -319 -89 -341 -88 -7 0 79 26 192 58 113
32 238 72 278 89 41 17 81 28 90 25 13 -4 14 -2 4 4 -10 7 -1 14 30 26 54 21
59 21 51 0 -4 -11 -3 -14 5 -9 17 11 15 -13 -4 -31 -14 -14 -16 -14 -28 2 -10
15 -12 12 -8 -19 2 -20 8 -36 13 -36 5 0 9 5 9 10 0 19 39 10 45 -10 5 -16 15
-20 46 -20 26 0 46 7 59 20 11 11 24 20 30 20 5 0 7 7 3 16 -5 13 -2 15 17 9
17 -5 21 -4 15 6 -6 11 -5 12 5 2 16 -15 40 0 40 25 0 8 3 13 6 9 8 -8 34 18
35 35 0 10 2 10 6 1 2 -7 9 -13 15 -13 6 0 4 8 -5 18 -10 10 -17 25 -17 34 0
8 -11 20 -25 26 -32 15 -75 15 -75 1 0 -5 -5 -7 -12 -3 -6 4 42 34 117 71 99
50 130 62 139 52 8 -9 7 -11 -6 -6 -9 3 -19 0 -22 -9 -3 -8 -12 -14 -19 -14
-17 0 -33 -93 -17 -98 6 -2 7 -8 4 -14 -9 -15 36 11 71 40 17 14 29 29 28 34
-2 4 6 8 17 8 11 0 20 4 20 8 0 4 12 15 28 24 15 9 49 37 76 62 27 25 54 47
60 49 7 3 3 13 -10 25 -16 15 -25 17 -33 9 -6 -6 -13 -8 -17 -5 -3 4 7 13 24
22 16 8 32 12 36 9 3 -4 6 -2 6 4 0 17 32 25 42 11 6 -10 8 -8 8 5 0 9 4 17 8
17 9 0 33 19 92 73 54 50 135 114 126 100 -12 -21 -16 -54 -5 -48 5 4 23 -1
41 -9 20 -10 58 -16 105 -16 88 0 129 18 193 84 55 57 62 59 20 6z m2327 -226
c-3 -3 -12 -4 -19 -1 -8 3 -5 6 6 6 11 1 17 -2 13 -5z m-3037 -39 c0 -7 -61
-37 -66 -32 -3 2 10 12 28 20 37 19 38 19 38 12z m-118 -65 c-42 -26 -56 -26
-17 0 17 11 35 20 40 20 6 0 -5 -9 -23 -20z m-317 -170 c3 -6 -4 -10 -17 -10
-18 0 -20 2 -8 10 19 12 18 12 25 0z m-45 -19 c0 -5 -10 -11 -22 -14 -22 -6
-22 -6 -4 8 23 17 26 18 26 6z m-75 -41 c-3 -5 -11 -10 -16 -10 -6 0 -7 5 -4
10 3 6 11 10 16 10 6 0 7 -4 4 -10z m45 -110 c0 -5 -9 -10 -20 -10 -11 0 -20
5 -20 10 0 6 9 10 20 10 11 0 20 -4 20 -10z m-757 -127 c-7 -2 -19 -2 -25 0
-7 3 -2 5 12 5 14 0 19 -2 13 -5z m-225 -10 c-15 -2 -42 -2 -60 0 -18 2 -6 4
27 4 33 0 48 -2 33 -4z m140 0 c-10 -2 -28 -2 -40 0 -13 2 -5 4 17 4 22 1 32
-1 23 -4z"/>
<path d="M7990 7101 c-125 -27 -191 -114 -176 -235 15 -132 136 -226 257 -198
79 19 133 62 170 137 38 79 37 131 -7 202 -46 75 -149 115 -244 94z"/>
<path d="M6890 5390 c0 -5 -11 -12 -24 -16 -13 -3 -34 -16 -47 -30 -19 -20
-20 -24 -6 -30 17 -6 121 13 150 27 25 14 21 38 -9 49 -33 13 -64 13 -64 0z"/>
<path d="M6763 5303 c9 -2 23 -2 30 0 6 3 -1 5 -18 5 -16 0 -22 -2 -12 -5z"/>
<path d="M6606 4987 c3 -10 9 -15 12 -12 3 3 0 11 -7 18 -10 9 -11 8 -5 -6z"/>
<path d="M6630 4970 c0 -5 13 -18 28 -28 16 -9 27 -23 24 -30 -7 -23 19 -72
39 -72 11 0 19 -5 19 -11 0 -5 5 -7 10 -4 6 3 10 -1 10 -9 0 -9 9 -16 20 -16
14 0 20 -7 20 -21 0 -19 5 -20 63 -17 61 3 63 2 59 -19 -3 -18 0 -23 17 -23
14 0 21 -6 21 -20 0 -13 7 -20 20 -20 13 0 20 -7 20 -20 0 -13 7 -20 20 -20
13 0 20 -7 20 -20 0 -11 6 -20 14 -20 8 0 18 -9 21 -20 3 -11 15 -20 26 -20
12 0 19 -7 19 -20 0 -13 7 -20 20 -20 13 0 20 -7 20 -20 0 -19 7 -20 96 -20
95 0 95 0 215 -57 101 -48 119 -60 119 -80 0 -20 5 -23 37 -23 24 0 67 -15
124 -45 72 -37 97 -45 141 -45 53 0 54 -1 67 -35 l12 -35 89 0 c100 0 135 -10
145 -39 3 -12 13 -21 21 -21 8 0 14 -4 14 -10 0 -5 9 -10 20 -10 11 0 20 5 20
10 0 13 173 11 217 -2 18 -5 43 -8 55 -6 13 2 -20 13 -72 26 -168 40 -519 156
-718 238 -127 53 -481 231 -600 303 -57 34 -108 58 -114 55 -6 -4 -8 -3 -5 2
3 6 -31 32 -76 59 -45 28 -134 84 -197 126 -147 96 -140 92 -140 79z m246
-168 c-4 -3 -14 2 -24 12 -16 18 -16 18 6 6 13 -6 21 -14 18 -18z m109 -72
c-3 -4 -15 -6 -27 -2 -21 5 -21 6 -2 12 21 8 37 3 29 -10z"/>
<path d="M8320 4075 c0 -11 7 -15 23 -13 12 2 22 8 22 13 0 6 -10 11 -22 13
-16 2 -23 -2 -23 -13z"/>
<path d="M8438 4083 c6 -2 18 -2 25 0 6 3 1 5 -13 5 -14 0 -19 -2 -12 -5z"/>
<path d="M8028 3713 c7 -3 16 -2 19 1 4 3 -2 6 -13 5 -11 0 -14 -3 -6 -6z"/>
<path d="M8268 3713 c6 -2 18 -2 25 0 6 3 1 5 -13 5 -14 0 -19 -2 -12 -5z"/>
<path d="M8143 3703 c15 -2 39 -2 55 0 15 2 2 4 -28 4 -30 0 -43 -2 -27 -4z"/>
<path d="M2180 7095 c-49 -15 -111 -70 -138 -119 -10 -19 -16 -55 -16 -91 -1
-174 174 -277 334 -195 47 24 75 55 101 115 38 85 26 167 -35 233 -52 58 -163
84 -246 57z"/>
<path d="M3588 5513 c17 -2 47 -2 65 0 17 2 3 4 -33 4 -36 0 -50 -2 -32 -4z"/>
<path d="M3733 5513 c9 -2 25 -2 35 0 9 3 1 5 -18 5 -19 0 -27 -2 -17 -5z"/>
<path d="M3350 5418 c-19 -13 -35 -28 -37 -35 -5 -15 51 -45 71 -37 21 8 21
54 1 54 -13 0 -14 4 -5 20 14 25 10 25 -30 -2z"/>
<path d="M3995 5050 c4 -6 11 -8 16 -5 14 9 11 15 -7 15 -8 0 -12 -5 -9 -10z"/>
<path d="M3540 4910 c-9 -6 -10 -10 -3 -10 6 0 15 5 18 10 8 12 4 12 -15 0z"/>
<path d="M3458 4856 c-10 -7 -14 -17 -10 -21 4 -5 2 -5 -4 -2 -7 4 -22 -2 -35
-12 -13 -10 -50 -33 -81 -51 -32 -17 -60 -35 -63 -39 -2 -4 18 -8 45 -8 43 -1
50 2 50 19 0 12 6 19 18 17 44 -4 62 2 62 20 0 10 9 21 19 24 15 3 19 13 19
36 -1 17 -1 31 -2 31 -1 0 -9 -7 -18 -14z m-58 -66 c-6 -11 -16 -20 -22 -20
-6 0 -3 9 7 20 10 11 20 20 22 20 2 0 -1 -9 -7 -20z"/>
<path d="M3220 4700 c0 -5 5 -10 11 -10 5 0 7 5 4 10 -3 6 -8 10 -11 10 -2 0
-4 -4 -4 -10z"/>
<path d="M3200 4693 c0 -5 -6 -10 -13 -10 -19 0 -107 -62 -107 -75 0 -5 7 -7
16 -4 9 3 19 6 22 6 4 0 0 5 -8 10 -12 7 -8 11 17 16 18 4 30 10 27 15 -3 5 6
9 19 9 23 0 45 26 32 38 -3 3 -5 1 -5 -5z"/>
<path d="M3055 4610 c-3 -5 -1 -10 4 -10 6 0 11 5 11 10 0 6 -2 10 -4 10 -3 0
-8 -4 -11 -10z"/>
<path d="M3005 4580 c-3 -6 1 -7 9 -4 18 7 21 14 7 14 -6 0 -13 -4 -16 -10z"/>
<path d="M2900 4530 c-12 -7 -10 -9 8 -7 12 0 22 5 22 9 0 11 -12 10 -30 -2z"/>
<path d="M2795 4480 c-79 -37 -138 -63 -205 -90 -118 -47 -129 -53 -123 -63 3
-6 1 -7 -5 -3 -6 3 -87 -18 -180 -48 -92 -30 -202 -62 -243 -72 -41 -9 -81
-20 -88 -24 -18 -10 78 0 99 10 8 4 44 8 80 9 36 1 67 7 68 12 5 12 42 12 42
-1 0 -5 9 -10 20 -10 15 0 20 7 20 25 0 19 5 25 20 25 12 0 42 11 68 25 26 14
62 25 79 25 18 0 33 5 33 11 0 11 24 39 34 39 3 0 4 -6 2 -12 -1 -7 -1 -10 1
-5 3 4 13 7 24 7 10 0 19 4 19 8 0 8 30 19 98 37 12 4 22 13 22 21 0 10 7 13
24 8 14 -3 33 -1 43 5 11 6 13 11 5 11 -7 0 -10 5 -7 10 4 6 11 8 16 5 10 -7
69 25 69 38 0 4 3 6 8 3 4 -2 16 2 27 10 32 23 -4 15 -70 -16z"/>
<path d="M2320 4230 c0 -5 5 -10 10 -10 6 0 10 5 10 10 0 6 -4 10 -10 10 -5 0
-10 -4 -10 -10z"/>
<path d="M6580 3865 c7 -8 16 -12 21 -9 13 8 1 24 -18 24 -13 0 -13 -3 -3 -15z"/>
<path d="M6627 3829 c20 -25 71 -50 78 -39 4 6 3 10 -2 9 -21 -4 -31 3 -28 19
1 9 0 11 -2 4 -4 -10 -11 -9 -31 4 -18 11 -23 13 -15 3z"/>
<path d="M6855 3660 c3 -5 20 -19 38 -31 l32 -22 -33 32 c-33 31 -49 40 -37
21z"/>
<path d="M7720 3379 c0 -5 9 -9 20 -9 11 0 20 2 20 4 0 2 -9 6 -20 9 -11 3
-20 1 -20 -4z"/>
<path d="M7820 3330 c0 -5 5 -10 10 -10 6 0 10 -9 10 -20 0 -14 7 -20 21 -20
16 0 20 5 16 20 -5 18 0 20 39 20 24 0 44 -4 44 -10 0 -5 9 -10 21 -10 12 0
19 5 16 13 -2 8 -28 12 -80 12 -43 0 -77 3 -77 8 0 4 -4 7 -10 7 -5 0 -10 -4
-10 -10z"/>
<path d="M7930 3270 c0 -5 7 -10 15 -10 8 0 15 -4 15 -10 0 -5 9 -10 20 -10
11 0 20 5 20 10 0 6 -9 10 -20 10 -11 0 -20 5 -20 10 0 6 -7 10 -15 10 -8 0
-15 -4 -15 -10z"/>
<path d="M8128 2963 c6 -2 18 -2 25 0 6 3 1 5 -13 5 -14 0 -19 -2 -12 -5z"/>
<path d="M3620 3890 c0 -13 18 -22 24 -11 3 5 -1 11 -9 15 -8 3 -15 1 -15 -4z"/>
<path d="M3229 3681 c12 -8 51 -4 51 5 0 2 -15 4 -32 4 -23 0 -29 -3 -19 -9z"/>
</g>
</svg>
